<svg xmlns="http://www.w3.org/2000/svg" xmlns:xlink="http://www.w3.org/1999/xlink" width="2000" zoomAndPan="magnify" viewBox="0 0 1500 1499.999933" height="2000" preserveAspectRatio="xMidYMid meet" version="1.0"><defs><g/><clipPath id="43a776a9b5"><path d="M 594.332031 187 L 1296 187 L 1296 1149 L 594.332031 1149 Z M 594.332031 187 " clip-rule="nonzero"/></clipPath><clipPath id="c87a87adef"><path d="M 1366 66.34375 L 1402.832031 66.34375 L 1402.832031 1433.59375 L 1366 1433.59375 Z M 1366 66.34375 " clip-rule="nonzero"/></clipPath></defs><g clip-path="url(#43a776a9b5)"><path fill="#12153e" d="M 594.882812 436.761719 L 594.882812 1059.785156 C 594.882812 1108.65625 634.886719 1148.660156 683.761719 1148.660156 L 993.449219 1148.660156 C 944.28125 1084.582031 915.082031 1004.410156 915.082031 917.4375 C 915.082031 707.464844 1085.28125 537.265625 1295.253906 537.265625 L 1295.253906 187.867188 L 1158.65625 187.867188 C 1128.832031 187.867188 1101.246094 203.796875 1086.332031 229.613281 L 1018.050781 347.917969 L 683.761719 347.917969 C 634.886719 347.917969 594.882812 387.890625 594.882812 436.761719 Z M 699.066406 437.84375 C 699.066406 430.75 704.878906 424.96875 711.941406 424.96875 L 913.902344 424.96875 C 920.996094 424.96875 926.777344 430.785156 926.777344 437.84375 L 926.777344 489.410156 C 926.777344 496.503906 920.960938 502.285156 913.902344 502.285156 L 711.972656 502.285156 C 704.878906 502.285156 699.097656 496.472656 699.097656 489.410156 L 699.097656 437.84375 Z M 699.066406 437.84375 " fill-opacity="1" fill-rule="nonzero"/></g><path fill="#12153e" d="M 1257.78125 668.214844 C 1246.085938 669.921875 1234.65625 672.453125 1223.523438 675.738281 C 1254.464844 696.230469 1274.890625 731.375 1274.890625 771.28125 C 1274.890625 834.539062 1223.621094 885.808594 1160.363281 885.808594 C 1117.863281 885.808594 1080.78125 862.621094 1061.011719 828.234375 C 1055.261719 843.933594 1051.058594 860.421875 1048.5625 877.433594 C 1026.097656 1031.800781 1145.191406 1164.261719 1295.222656 1164.261719 L 1295.222656 1236.652344 C 1209.269531 1236.652344 1128.472656 1203.183594 1067.710938 1142.421875 C 1006.949219 1081.660156 973.480469 1000.863281 973.480469 914.910156 C 973.480469 828.957031 1006.949219 748.160156 1067.710938 687.394531 C 1128.472656 626.632812 1209.269531 593.164062 1295.222656 593.164062 L 1295.222656 665.554688 C 1282.9375 665.488281 1270.425781 666.375 1257.78125 668.214844 Z M 1257.78125 668.214844 " fill-opacity="1" fill-rule="nonzero"/><g clip-path="url(#c87a87adef)"><path fill="#12153e" d="M 1366.625 66.34375 L 1402.230469 66.34375 L 1402.230469 1433.75 L 1366.625 1433.75 Z M 1366.625 66.34375 " fill-opacity="1" fill-rule="nonzero"/></g><g fill="#12153e" fill-opacity="1"><g transform="translate(741.577121, 774.373449)"><g><path d="M 8.40625 0.3125 C 7.21875 0.3125 6.28125 -0.0195312 5.59375 -0.6875 C 4.90625 -1.351562 4.5625 -2.238281 4.5625 -3.34375 C 4.5625 -4.425781 4.90625 -5.316406 5.59375 -6.015625 C 6.28125 -6.710938 7.21875 -7.0625 8.40625 -7.0625 C 9.613281 -7.0625 10.5625 -6.726562 11.25 -6.0625 C 11.9375 -5.394531 12.28125 -4.507812 12.28125 -3.40625 C 12.28125 -2.300781 11.929688 -1.40625 11.234375 -0.71875 C 10.535156 -0.03125 9.59375 0.3125 8.40625 0.3125 Z M 8.40625 0.3125 "/></g></g></g></svg>